<?xml version="1.0" standalone="no"?>
<!DOCTYPE svg PUBLIC "-//W3C//DTD SVG 20010904//EN"
 "http://www.w3.org/TR/2001/REC-SVG-20010904/DTD/svg10.dtd">
<svg version="1.0" xmlns="http://www.w3.org/2000/svg"
 width="649.000000pt" height="649.000000pt" viewBox="0 0 649.000000 649.000000"
 preserveAspectRatio="xMidYMid meet">
<metadata>
Created by potrace 1.11, written by Peter Selinger 2001-2013
</metadata>
<g transform="translate(0.000000,649.000000) scale(0.100000,-0.100000)"
fill="#000000" stroke="none">
<path d="M0 3245 l0 -3245 3245 0 3245 0 0 3245 0 3245 -3245 0 -3245 0 0
-3245z m3321 2110 c48 -3 122 -12 165 -20 44 -9 106 -21 139 -27 33 -6 119
-31 190 -56 319 -109 578 -274 810 -513 220 -227 373 -480 474 -787 50 -150
81 -314 126 -662 39 -300 102 -675 134 -797 30 -118 30 -117 -36 -142 -232
-84 -886 -302 -896 -298 -25 9 -168 411 -218 612 -16 66 -52 257 -79 425 -90
544 -136 671 -310 854 -158 165 -346 260 -562 284 -275 30 -549 -67 -744 -262
-113 -113 -181 -225 -227 -371 -133 -424 57 -880 453 -1084 168 -86 272 -105
525 -96 135 5 204 3 240 -5 315 -76 510 -419 406 -715 -55 -155 -202 -299
-379 -371 -86 -35 -219 -47 -427 -41 -200 7 -315 23 -484 68 -499 132 -948
471 -1213 915 -105 176 -170 330 -223 529 -52 197 -67 322 -67 535 0 157 4
208 27 335 136 759 657 1360 1385 1599 74 24 155 47 180 51 25 3 79 13 120 21
82 16 301 32 365 28 22 -2 79 -6 126 -9z m-91 -1873 c244 -141 269 -160 253
-194 -12 -27 -450 -280 -497 -286 -53 -8 -56 5 -56 277 0 135 3 263 7 284 6
40 33 60 63 49 8 -3 112 -62 230 -130z m2195 -1198 c13 -32 20 -74 12 -74 -2
0 -212 -72 -467 -160 -255 -89 -473 -160 -484 -158 -25 4 -54 84 -37 101 15
15 908 326 938 326 17 1 27 -8 38 -35z m55 -159 c6 -19 10 -42 8 -51 -2 -11
-137 -62 -473 -179 -258 -89 -475 -160 -482 -158 -13 5 -33 56 -33 83 0 14 96
50 463 178 254 88 472 161 484 161 16 1 24 -8 33 -34z m50 -144 c6 -16 10 -37
8 -46 -2 -13 -121 -58 -478 -182 -444 -153 -476 -163 -488 -146 -18 26 -26 63
-15 74 11 11 921 328 944 329 9 0 22 -13 29 -29z m49 -143 c9 -25 8 -35 -1
-44 -19 -18 -938 -333 -954 -327 -16 6 -29 62 -17 74 11 11 922 328 945 328 9
1 21 -12 27 -31z m43 -123 c9 -21 9 -29 -3 -40 -8 -7 -223 -86 -479 -174
l-465 -161 -17 21 c-20 24 -21 29 -10 45 7 12 914 331 945 333 10 1 23 -10 29
-24z m39 -116 c8 -16 8 -24 -1 -33 -16 -16 -942 -335 -956 -329 -15 5 -24 37
-15 51 6 10 915 329 943 331 10 0 22 -8 29 -20z m37 -116 c2 -13 2 -23 -1 -23
-2 0 -212 -72 -467 -160 -255 -89 -473 -160 -484 -158 -13 2 -21 10 -21 23 0
17 61 41 465 182 256 89 474 161 485 160 12 -1 21 -11 23 -24z"/>
</g>
</svg>
