<svg width="50" height="51" viewBox="0 0 50 51" fill="none" xmlns="http://www.w3.org/2000/svg">
<path fill-rule="evenodd" clip-rule="evenodd" d="M42.1307 8.8992C41.8368 9.15482 41.4605 9.29556 41.071 9.29556C40.6815 9.29556 40.3051 9.15482 40.0112 8.8992C36.2337 5.62235 31.4952 3.65885 26.507 3.3035C21.5188 2.94827 16.5499 4.22025 12.346 6.92862C12.0178 7.13712 11.6256 7.22061 11.2409 7.16409C10.8561 7.10745 10.5046 6.91458 10.2502 6.62052C10.1755 6.53397 10.1104 6.43997 10.0557 6.34036C9.99854 6.23624 9.95283 6.12589 9.9195 6.01126C9.85426 5.78678 9.83808 5.55094 9.87214 5.31961C9.9062 5.08829 9.98963 4.8671 10.1168 4.67093C10.1744 4.58194 10.2405 4.49918 10.3138 4.42349C10.4022 4.33231 10.5013 4.25137 10.6091 4.18277C15.4004 1.10513 21.0592 -0.338713 26.7393 0.0670487C32.4194 0.472932 37.8156 2.7067 42.1206 6.43436C42.298 6.58695 42.4405 6.77603 42.5382 6.98868C42.6358 7.20145 42.6863 7.43277 42.6863 7.66678C42.6863 7.90079 42.6358 8.13211 42.5382 8.34476C42.4958 8.43704 42.445 8.52493 42.3866 8.60721C42.3104 8.71463 42.2211 8.81278 42.1206 8.8992H42.1307ZM24.118 41.7702C24.3389 41.7773 24.6401 41.7869 25.0698 41.7649C25.7027 41.7344 26.3334 41.6689 26.9591 41.5686C28.5098 41.2707 30.9103 39.4829 31.022 37.1129C31.0604 36.4461 30.9587 35.7786 30.7235 35.1536C30.4881 34.5285 30.1245 33.9596 29.6558 33.4837C29.1873 33.0077 28.6242 32.6353 28.0028 32.3903C27.3814 32.1453 26.7156 32.0332 26.0483 32.0613C25.992 32.0639 25.9356 32.0681 25.8793 32.0736C25.8118 32.0802 25.7444 32.0885 25.6769 32.0976L25.6323 32.1035L25.5462 32.1153C25.4122 32.1338 25.2783 32.1524 25.1443 32.1629C24.6032 32.2069 24.059 32.2001 23.5191 32.1426C22.9944 32.0822 22.4771 31.9687 21.9752 31.804C21.453 31.6342 20.9511 31.407 20.4787 31.1269C20.0013 30.8427 19.5543 30.5102 19.1447 30.1348C18.7882 29.8008 18.4619 29.4359 18.1696 29.0446C17.8704 28.646 17.6139 28.217 17.4044 27.7648C17.0941 27.0901 16.8843 26.3738 16.7814 25.6385C16.6862 25.0338 16.6669 24.4196 16.7239 23.8102C16.7642 23.416 16.8287 23.0249 16.9169 22.6387C17.0061 22.2838 17.1192 21.9355 17.2554 21.5959C17.4356 21.137 17.6625 20.6979 17.9326 20.2856C18.2233 19.8432 18.5567 19.4305 18.928 19.0531C19.2723 18.7001 19.6511 18.3825 20.0588 18.1051C20.5145 17.7935 21.0026 17.5324 21.5147 17.3264C21.9912 17.1299 22.4872 16.9847 22.9943 16.893C23.3721 16.8297 23.753 16.7868 24.1353 16.7643C24.1761 16.7614 24.2169 16.7588 24.2576 16.7567C24.2907 16.755 24.3237 16.7536 24.3567 16.7525C24.5606 16.7455 24.7647 16.7494 24.9683 16.7643C26.0338 16.8445 27.0712 17.1443 28.0155 17.6447C28.5258 17.9057 29.0013 18.2299 29.4307 18.6097C29.7739 18.9196 30.0985 19.2497 30.4024 19.5983C30.7586 20.0253 31.0621 20.4937 31.3064 20.9932C31.5654 21.4832 31.7708 21.9997 31.9193 22.5337C32.0581 23.0822 32.1596 23.4987 32.1935 23.6747C32.4019 24.7099 32.5472 25.664 32.6729 26.49C32.729 26.8582 32.7812 27.201 32.8334 27.5142C33.0283 28.7078 33.2871 29.8899 33.6088 31.0557C33.7239 31.4316 33.8762 31.9021 33.8762 31.9021C34.0624 32.471 34.1979 32.8604 34.2554 33.0229L34.3076 33.1711L34.3107 33.1798C34.3994 33.4318 34.446 33.5642 34.4688 33.6154L34.4702 33.6187L34.5233 33.7443C34.5513 33.8101 34.5791 33.8743 34.6071 33.9367C34.6199 33.9652 34.6329 33.9934 34.6459 34.0212L34.6646 34.0608L34.6762 34.0847C34.6748 34.1017 34.6751 34.1187 34.6768 34.1354C34.6777 34.1441 34.6791 34.1527 34.6809 34.1613C34.6835 34.1743 34.6872 34.1873 34.6918 34.1999C34.6957 34.2106 34.7004 34.2212 34.7057 34.2316L34.9799 35.0305C35.0375 35.1931 35.1763 35.2879 35.2948 35.2473L42.0728 32.9001L42.5134 32.7588C42.5595 32.7487 42.6047 32.7349 42.6484 32.7176C42.6906 32.701 42.7314 32.6812 42.7705 32.6584L43.116 32.5387C43.1771 32.5037 43.2228 32.4471 43.2441 32.3799C43.2654 32.3129 43.2608 32.2403 43.2311 32.1764L43.1301 31.8859C43.1246 31.8345 43.1154 31.7834 43.1025 31.7329C43.0963 31.6901 43.0897 31.6472 43.0825 31.6045L43.0731 31.5492C43.0675 31.5174 43.0616 31.4856 43.0554 31.454C43.0371 31.3592 43.0163 31.2647 42.9932 31.1708L42.977 31.1064L42.9637 31.0557C42.9329 30.9217 42.9089 30.8201 42.8889 30.7355L42.8569 30.5992C42.8394 30.5237 42.8247 30.4573 42.8092 30.3804C42.8033 30.3512 42.7973 30.3205 42.791 30.2871C42.7827 30.2437 42.7741 30.2013 42.7661 30.1614C42.7446 30.0552 42.7267 29.9667 42.7267 29.9248C42.7174 29.8604 42.7095 29.8026 42.701 29.7403C42.6756 29.5537 42.6445 29.3251 42.5506 28.7466C42.432 28.0104 42.3594 27.6239 42.2957 27.2843C42.2448 27.0133 42.1995 26.7722 42.1409 26.407C42.0632 25.9284 42.0444 25.7427 42.0126 25.427C41.9833 25.1376 41.9431 24.7389 41.8362 23.9049C41.6447 22.4185 41.4929 21.6399 41.3874 21.0987C41.3729 21.0244 41.3593 20.9547 41.3466 20.8882C41.334 20.8222 41.3223 20.7594 41.3114 20.6986C41.2252 20.2676 41.1121 19.8424 40.9728 19.4256C40.8691 19.1059 40.7613 18.7792 40.6449 18.4552C40.6229 18.394 40.6005 18.3327 40.5778 18.2716L40.5499 18.1972L40.5202 18.1189L40.4962 18.0564L40.4691 17.9873L40.4379 17.9087C40.2686 17.4754 40.0654 17.0522 39.8589 16.6357C39.6862 16.331 39.5 16.0465 39.3477 15.7419C38.9814 15.0629 38.5518 14.4202 38.0645 13.8221C37.6027 13.221 37.0968 12.6552 36.551 12.1292L36.3795 11.969L36.3775 11.9672C36.2794 11.8755 36.1832 11.7856 36.0853 11.6957C35.9662 11.5863 35.8446 11.4772 35.7141 11.3653C35.6564 11.3158 35.597 11.2658 35.5353 11.215C35.2705 10.9971 35.0009 10.7809 34.7241 10.5752C34.6642 10.5307 34.6039 10.4866 34.5433 10.4431C34.4793 10.3972 34.415 10.3521 34.3502 10.3076C33.8593 9.97244 33.3514 9.66104 32.8436 9.35623C32.5579 9.19034 32.2642 9.03885 31.9633 8.90262C31.8682 8.85819 31.773 8.81412 31.6778 8.77078C31.5805 8.72647 31.483 8.68302 31.3853 8.64054C31.2988 8.60294 31.2122 8.56632 31.1252 8.53067C31.0336 8.49307 30.9417 8.4567 30.8494 8.42179C30.3347 8.22537 29.8167 8.0358 29.2919 7.86991C28.9334 7.76285 28.5695 7.67459 28.2017 7.60587L28.1381 7.59305L28.0774 7.58133C28.0496 7.5762 28.0219 7.57132 27.994 7.56644C27.8884 7.54801 27.7822 7.5314 27.6759 7.5148L27.6741 7.51444C27.4371 7.47745 27.1998 7.44046 26.9692 7.38236C26.3052 7.26297 25.6326 7.1973 24.9581 7.18595C24.5535 7.15555 24.1472 7.15555 23.7426 7.18595C23.2144 7.21304 22.6896 7.25369 22.1648 7.31803C21.9992 7.33621 21.8335 7.37308 21.6679 7.40994L21.6649 7.41068C21.5335 7.43985 21.402 7.46903 21.2705 7.4888C21.2301 7.49491 21.1896 7.50015 21.1491 7.50418C20.4013 7.60404 19.6674 7.78909 18.9619 8.05618C18.2973 8.27493 17.6471 8.53494 17.015 8.83487C16.5031 9.08804 16.0187 9.36173 15.5278 9.63919L15.4879 9.6619L15.4191 9.70072L15.207 9.8201C14.9957 9.94339 14.7915 10.0784 14.5953 10.2243L14.5443 10.2626L14.5104 10.2886L14.4838 10.3091C14.4458 10.3387 14.4081 10.3687 14.3707 10.3991C14.1085 10.5937 13.8463 10.7945 13.5886 10.9977C13.513 11.0574 13.4378 11.1172 13.363 11.1772C13.2715 11.2506 13.1807 11.3243 13.091 11.3979C12.7557 11.6756 12.4544 11.9566 12.1361 12.2951L12.0172 12.4215C11.7403 12.7154 11.4696 13.0027 11.2118 13.3108C11.0884 13.4583 10.9705 13.6022 10.8541 13.7493L10.8054 13.8111L10.7737 13.8516L10.7239 13.916C10.6066 14.0685 10.4895 14.2267 10.3688 14.3977C10.0851 14.7995 9.82173 15.2149 9.55836 15.6302L9.55616 15.6335C9.44624 15.7928 9.34889 15.9602 9.26496 16.1346L9.22798 16.2168L9.19355 16.2921C9.16383 16.3564 9.13374 16.4203 9.10334 16.4839C9.03315 16.6306 8.96143 16.7758 8.88984 16.9206C8.74128 17.2211 8.59358 17.5199 8.46253 17.8275C8.2804 18.2517 8.13593 18.6869 7.99177 19.1214C7.9242 19.3249 7.8567 19.5282 7.78541 19.7303C7.72181 19.9263 7.66639 20.1249 7.61915 20.3255C7.61195 20.3561 7.60499 20.3868 7.59815 20.4174L7.58845 20.4618L7.57691 20.5164C7.55775 20.6084 7.54035 20.7008 7.52473 20.7935C7.49372 20.9497 7.47157 21.1077 7.44941 21.2654C7.41822 21.4872 7.38709 21.7087 7.33173 21.9242C7.21223 22.5838 7.14655 23.2517 7.13532 23.9219C7.10658 24.3311 7.10658 24.7417 7.13532 25.1509C7.16578 25.6825 7.20307 26.2513 7.2674 26.7422C7.33173 27.2332 7.42988 27.7513 7.53486 28.2489C7.54908 28.3178 7.56623 28.3854 7.58509 28.4524C7.60926 28.5382 7.63624 28.6231 7.66328 28.7082L7.66364 28.7096C7.71607 28.8748 7.76881 29.0409 7.80232 29.2172C7.98756 29.9405 8.22633 30.649 8.51673 31.3367C8.5547 31.4438 8.61207 31.5437 8.6695 31.6438L8.67005 31.6446C8.68482 31.6704 8.69959 31.6963 8.71406 31.7222L8.7375 31.7652C8.76789 31.8218 8.79591 31.8794 8.81806 31.9394C9.12342 32.6302 9.48463 33.2948 9.89814 33.9269C10.0694 34.2141 10.2606 34.489 10.4703 34.7497C10.8225 35.2 11.1847 35.6469 11.5571 36.0802C11.78 36.3363 12.0162 36.5805 12.2648 36.8116C12.6068 37.1366 12.9521 37.4549 13.3144 37.7596C13.5853 37.9898 13.8934 38.1795 14.1642 38.4097C14.743 38.8661 15.3617 39.2694 16.0128 39.615C16.7215 40.0098 17.4595 40.3494 18.2204 40.6308C18.5022 40.7401 18.7776 40.8385 19.0676 40.9311C19.1991 40.9731 19.3336 41.0138 19.4731 41.054C19.9201 41.1826 20.4042 41.3011 20.8275 41.3925C21.2507 41.4839 21.7077 41.5551 22.1039 41.6059C22.5 41.6566 22.9029 41.6769 23.3024 41.7108L23.3357 41.714L23.3679 41.7173C23.4128 41.7221 23.4566 41.7277 23.5005 41.7334L23.5552 41.7404L23.6176 41.748C23.6574 41.7525 23.6981 41.7565 23.7407 41.7594C23.7894 41.7628 23.8403 41.7649 23.895 41.7649C23.9592 41.7649 24.0326 41.7674 24.118 41.7702ZM23.1838 22.053C23.1311 22.0238 23.0755 22 23.018 21.9818C22.9996 21.9783 22.9812 21.9759 22.9627 21.9748C22.9528 21.9742 22.9429 21.9738 22.9331 21.9739L22.9187 21.9742C22.8843 21.9755 22.85 21.9809 22.8166 21.9901C22.751 22.0085 22.6906 22.0418 22.6401 22.0874C22.6093 22.1151 22.5827 22.147 22.5609 22.1822C22.547 22.2046 22.5351 22.2283 22.5254 22.2531C22.5005 22.3164 22.4906 22.3847 22.4965 22.4524V23.3565V26.7727C22.4891 26.8546 22.5054 26.9369 22.5433 27.0098C22.5812 27.0827 22.6392 27.1432 22.7105 27.1842C22.7252 27.1927 22.7402 27.2002 22.7557 27.2068C22.774 27.2146 22.7928 27.2212 22.8119 27.2265C22.8551 27.2382 22.9002 27.2432 22.9453 27.241C22.983 27.2392 23.02 27.2325 23.0555 27.2211C23.0975 27.2077 23.1374 27.1879 23.1737 27.1621L26.9522 25.0121C27.0255 24.9777 27.0874 24.923 27.1307 24.8548C27.1741 24.7864 27.1972 24.7071 27.1972 24.6261C27.1972 24.5452 27.1741 24.466 27.1307 24.3976C27.1236 24.3864 27.116 24.3755 27.1079 24.365C27.091 24.3432 27.0719 24.323 27.0512 24.3048C27.0215 24.279 26.9882 24.2571 26.9522 24.2401L23.1838 22.053ZM7.32032 38.6708C7.26808 39.0569 7.07862 39.4113 6.78657 39.6692V39.6725C6.61103 39.8273 6.40418 39.9424 6.18012 40.0099C5.95606 40.0773 5.7201 40.0956 5.48829 40.0635C5.25648 40.0314 5.03437 39.9495 4.83717 39.8236C4.6399 39.6977 4.47218 39.5307 4.34541 39.334C1.21266 34.5778 -0.295157 28.9346 0.0478603 23.2497C0.390939 17.5647 2.56629 12.1438 6.24824 7.79886C6.39839 7.62003 6.58527 7.47574 6.79615 7.37552C7.00703 7.2753 7.23701 7.22159 7.47047 7.21805C7.70387 7.21451 7.93537 7.26126 8.14918 7.35501C8.36298 7.44876 8.55415 7.58743 8.70966 7.76163C8.96754 8.05277 9.11244 8.42679 9.11805 8.81571C9.1236 9.20462 8.98957 9.58255 8.74018 9.88114C5.50495 13.6944 3.59351 18.454 3.29255 23.4457C2.99159 28.4374 4.31733 33.3922 7.07099 37.5666C7.28401 37.8929 7.37251 38.2848 7.32032 38.6708ZM46.6372 27.5617C47.132 22.5839 45.996 17.5802 43.4004 13.3041C43.2 12.9704 43.1264 12.5757 43.1929 12.1922C43.2594 11.8086 43.4617 11.4618 43.7627 11.2151C43.8446 11.1483 43.9324 11.0899 44.0251 11.0403C44.1375 10.9803 44.257 10.9335 44.3811 10.9012C44.5011 10.8698 44.6239 10.8523 44.7472 10.8489C44.8564 10.846 44.9659 10.8539 45.0741 10.873C45.3045 10.9135 45.5234 11.0031 45.716 11.1357C45.9086 11.2683 46.0704 11.441 46.1903 11.6418C48.0362 14.6947 49.2444 18.0901 49.742 21.6228C50.2395 25.1557 50.0161 28.7527 49.0852 32.1968C48.5637 34.1266 45.6993 33.6053 45.8958 31.6178C45.9047 31.5298 45.9205 31.4427 45.9431 31.3571C46.2812 30.1138 46.5134 28.8441 46.6372 27.5617ZM9.92512 41.2842C13.7285 44.5254 18.4808 46.4452 23.4683 46.7556C24.7551 46.8334 26.0462 46.804 27.3281 46.6675C27.416 46.6608 27.5042 46.6608 27.5922 46.6675C29.583 46.7929 29.6405 49.7046 27.6565 49.9077C24.1097 50.2763 20.525 49.9226 17.1185 48.8682C13.7122 47.8139 10.5545 46.0805 7.83613 43.7727C7.65699 43.6223 7.5124 43.4351 7.41218 43.2237C7.3119 43.0124 7.25831 42.7819 7.25514 42.548L7.25501 42.5158C7.25507 42.5035 7.25532 42.4912 7.25569 42.479C7.25642 42.4525 7.25782 42.4262 7.25984 42.3998C7.26173 42.3755 7.26417 42.3514 7.2671 42.3273C7.27308 42.2784 7.28132 42.2298 7.29176 42.1816C7.31495 42.0743 7.34901 41.9694 7.3935 41.8683L7.40644 41.8398L7.41596 41.8196L7.42622 41.7987C7.43214 41.7869 7.43818 41.7751 7.44441 41.7633C7.45429 41.7447 7.46461 41.7261 7.47523 41.7078C7.48463 41.6916 7.49433 41.6754 7.50434 41.6596C7.51277 41.6462 7.52137 41.6328 7.5301 41.6198C7.53919 41.6062 7.54847 41.5928 7.55799 41.5795C7.56727 41.5664 7.57673 41.5536 7.58637 41.5409L7.60713 41.5142L7.62367 41.4937L7.63886 41.4754C7.6515 41.4604 7.66438 41.4456 7.67756 41.4312C7.68678 41.4211 7.69611 41.411 7.70558 41.4012C7.73646 41.3688 7.76875 41.3377 7.80225 41.3079C8.09449 41.0501 8.46961 40.9058 8.85932 40.9015C9.24897 40.8971 9.62721 41.033 9.92512 41.2842ZM35.7688 36.6187L43.59 33.9101C43.6473 33.8872 43.6936 33.843 43.7188 33.7868C43.7441 33.7305 43.7465 33.6667 43.7254 33.6087L43.5426 33.0738C43.5238 33.0142 43.4824 32.9645 43.4273 32.9353C43.3721 32.9062 43.3077 32.8999 43.248 32.918L35.4268 35.6266C35.3689 35.6486 35.3222 35.6927 35.2967 35.7492C35.2938 35.7555 35.2913 35.762 35.289 35.7686C35.2864 35.776 35.2842 35.7836 35.2824 35.7913C35.2795 35.8033 35.2777 35.8153 35.2768 35.8275C35.2743 35.8614 35.2791 35.8957 35.2914 35.9279L35.4776 36.4662C35.4963 36.5249 35.5374 36.5738 35.5919 36.6023C35.6464 36.6309 35.71 36.6368 35.7688 36.6187ZM44.0301 35.1897L36.2089 37.8983C36.1796 37.9077 36.1487 37.9112 36.1181 37.9084C36.0988 37.9066 36.08 37.9025 36.0618 37.8959L36.0532 37.8926L36.0452 37.8892L36.0372 37.8854L36.0305 37.882C36.0033 37.8675 35.9794 37.8477 35.96 37.8238C35.9406 37.7998 35.9263 37.7722 35.9178 37.7426L35.762 37.2957C35.7401 37.2378 35.742 37.1735 35.7673 37.117C35.7798 37.0893 35.7974 37.0646 35.8189 37.044C35.822 37.041 35.8251 37.0381 35.8284 37.0354L35.8331 37.0315C35.84 37.0259 35.8472 37.0207 35.8548 37.0159C35.8682 37.0074 35.8825 37.0002 35.8975 36.9944L43.7186 34.2858C43.7783 34.2677 43.8427 34.274 43.8979 34.3031C43.953 34.3323 43.9945 34.382 44.0132 34.4416L44.1655 34.8885C44.1875 34.9463 44.1856 35.0107 44.1602 35.0672C44.1446 35.102 44.1209 35.132 44.0914 35.1552C44.073 35.1696 44.0524 35.1813 44.0301 35.1897ZM36.6254 39.0902L44.4465 36.3816C44.5013 36.3597 44.5457 36.3177 44.5708 36.2643C44.5959 36.211 44.5999 36.1501 44.582 36.0938L44.4601 35.7349C44.4407 35.6761 44.3989 35.6271 44.3439 35.5987C44.2888 35.5701 44.2248 35.5644 44.1655 35.5826L36.3444 38.2912C36.2862 38.3139 36.2394 38.3587 36.214 38.4157C36.1887 38.4727 36.1868 38.5375 36.2089 38.5959L36.3308 38.9345C36.3327 38.9406 36.3347 38.9467 36.337 38.9527C36.3398 38.9596 36.3428 38.9665 36.3462 38.9731C36.3539 38.9882 36.3632 39.0026 36.3741 39.0158C36.3938 39.0398 36.418 39.0596 36.4454 39.0741L36.4514 39.0771L36.4669 39.084C36.4755 39.0876 36.4843 39.0905 36.4933 39.0929C36.5065 39.0966 36.5201 39.099 36.5338 39.1003C36.5647 39.1031 36.5958 39.0996 36.6254 39.0902ZM44.8292 37.4854L37.0081 40.194C36.9484 40.2119 36.8839 40.2057 36.8288 40.1767C36.7736 40.1475 36.7322 40.0977 36.7135 40.0382L36.6221 39.7708C36.6201 39.7654 36.6182 39.7599 36.6166 39.7544L36.6149 39.7486C36.6111 39.7343 36.6086 39.7196 36.6075 39.705C36.6047 39.6667 36.6113 39.6278 36.6274 39.5921C36.6528 39.5356 36.6996 39.4915 36.7575 39.4694L44.5787 36.7608C44.608 36.7515 44.6389 36.7481 44.6696 36.7509L44.6821 36.7524L44.6916 36.7539C44.7003 36.7556 44.7089 36.7578 44.7174 36.7605C44.7311 36.7648 44.7444 36.7703 44.7571 36.7771C44.7843 36.7917 44.8083 36.8114 44.8276 36.8355C44.8357 36.8454 44.8429 36.856 44.8491 36.8671C44.8579 36.8827 44.8649 36.8993 44.8698 36.9165L44.9647 37.184C44.9866 37.242 44.9847 37.3062 44.9594 37.3627C44.9468 37.3904 44.9292 37.4152 44.9077 37.4358C44.8902 37.4527 44.8701 37.4666 44.8482 37.4773C44.842 37.4803 44.8357 37.4829 44.8292 37.4854ZM37.3568 41.2096L45.1779 38.501C45.2361 38.4783 45.283 38.4336 45.3083 38.3765C45.3337 38.3195 45.3355 38.2547 45.3134 38.1963L45.2525 38.0169C45.233 37.958 45.1913 37.9091 45.1362 37.8806C45.121 37.8728 45.1051 37.8666 45.0888 37.8622C45.0781 37.8593 45.0671 37.8572 45.0562 37.8559C45.0456 37.8545 45.035 37.8539 45.0244 37.854C45.002 37.8544 44.9796 37.8578 44.9579 37.8645L37.1367 40.5732C37.0786 40.5959 37.0317 40.6407 37.0064 40.6977C36.981 40.7547 36.9792 40.8195 37.0013 40.8778L37.0622 41.0573C37.0817 41.1162 37.1234 41.1651 37.1784 41.1936C37.2335 41.2221 37.2976 41.2278 37.3568 41.2096ZM45.4962 39.422L37.6751 42.1306C37.6457 42.14 37.6148 42.1433 37.5841 42.1405C37.5535 42.1377 37.5237 42.1288 37.4965 42.1143C37.4694 42.0998 37.4454 42.08 37.4261 42.0561C37.4067 42.0321 37.3923 42.0045 37.3839 41.9749L37.3534 41.8869C37.3314 41.829 37.3333 41.7647 37.3587 41.7082C37.3841 41.6516 37.4309 41.6076 37.4888 41.5855L45.3099 38.8769C45.3393 38.8676 45.3702 38.8642 45.4009 38.867C45.4315 38.8698 45.4613 38.8787 45.4885 38.8932C45.5156 38.9077 45.5396 38.9276 45.5589 38.9516C45.5783 38.9755 45.5927 39.0031 45.6011 39.0326L45.6316 39.1206C45.6536 39.1786 45.6517 39.243 45.6263 39.2993C45.6009 39.3559 45.5541 39.4001 45.4962 39.422ZM37.9662 42.9668L45.7873 40.2582C45.8452 40.2362 45.892 40.1922 45.9174 40.1357C45.9428 40.0791 45.9448 40.0148 45.9227 39.9569C45.9139 39.9272 45.8992 39.8996 45.8795 39.8756C45.8598 39.8516 45.8355 39.8318 45.8081 39.8173C45.7807 39.8028 45.7507 39.794 45.7198 39.7912C45.6889 39.7884 45.6577 39.7918 45.6282 39.8012L37.807 42.5098C37.7491 42.5318 37.7023 42.576 37.6769 42.6325C37.6515 42.689 37.6496 42.7532 37.6716 42.8112C37.6809 42.8406 37.6957 42.8676 37.7149 42.8909C37.7346 42.9147 37.759 42.9347 37.7869 42.9495C37.8129 42.9633 37.8411 42.972 37.8698 42.9754C37.9019 42.9792 37.9347 42.9764 37.9662 42.9668Z" fill="url(#paint0_linear)"/>
<defs>
<linearGradient id="paint0_linear" x1="10.5" y1="8.43341e-07" x2="50" y2="56.5" gradientUnits="userSpaceOnUse">
<stop stop-color="#8F8E95"/>
<stop offset="1" stop-color="#8F8E95" stop-opacity="0"/>
</linearGradient>
</defs>
</svg>
