<svg xmlns="http://www.w3.org/2000/svg" viewBox="0 0 677.59 124.41"><defs><style>.cls-1{font-size:49.88px;font-family:HalyardTextMedium-Italic, Halyard Text;font-style:italic;}.cls-1,.cls-3,.cls-5{fill:#fff;}.cls-2{letter-spacing:-0.01em;}.cls-3,.cls-4{fill-rule:evenodd;}.cls-4{fill:#e34b5e;}</style></defs><g id="Layer_2" data-name="Layer 2"><g id="White"><g id="by"><text class="cls-1" transform="translate(354.91 110.64)"><tspan class="cls-2">b</tspan><tspan x="28.88" y="0">y</tspan></text></g><g id="fanpass"><path class="cls-3" d="M433.71,110.68l3-23-5.71,0,1-6.76,5.7,0,.64-4.18c0-.31.11-.78.22-1.43q1-6.78,3-9.16a8,8,0,0,1,3.34-2.32,13.79,13.79,0,0,1,4.8-.8,20.8,20.8,0,0,1,4.39.41,14.9,14.9,0,0,1,3.74,1.28l-1.12,7.94A12.73,12.73,0,0,0,454,71.41a6.73,6.73,0,0,0-2.31-.41,3.6,3.6,0,0,0-3,1.18,9.25,9.25,0,0,0-1.36,4.32l-.56,4.4,7.68-.06-.93,6.75-7.62.06-3,22.95Z"/><path class="cls-3" d="M475.86,93.85a7.33,7.33,0,0,0-2-5.38,7.24,7.24,0,0,0-5.41-1.91,7.65,7.65,0,0,0-6.18,2.79,11.35,11.35,0,0,0-2.21,7.53,6.83,6.83,0,0,0,2.1,5.19,7.86,7.86,0,0,0,5.62,1.89,7.29,7.29,0,0,0,5.89-2.8,11.16,11.16,0,0,0,2.18-7.31m6.58,16.43-9.15.08.49-3.3a10.24,10.24,0,0,1-4,3.39,13.52,13.52,0,0,1-5.63,1.16c-4.06,0-7.24-1.18-9.52-3.63s-3.44-5.93-3.49-10.39q-.08-7.75,4.21-12.77a14,14,0,0,1,11-5.09,13.45,13.45,0,0,1,6,1.24,11.3,11.3,0,0,1,4.38,3.82l.52-4.15,9.14-.07Z"/><path class="cls-3" d="M486.38,110.25l3.91-29.71,8.49-.07-.67,4.67a21.5,21.5,0,0,1,5.73-4.35,13.82,13.82,0,0,1,6-1.41c3.44,0,6.12.74,8.06,2.3a8,8,0,0,1,2.93,6.54,42.56,42.56,0,0,1-.5,5.39l-.09.66-2,15.72-9.17.07,2.15-16.57c.06-.58.11-1.09.13-1.52s0-.79,0-1.08a4.13,4.13,0,0,0-1.29-3.22,5.14,5.14,0,0,0-3.58-1.12,8.5,8.5,0,0,0-6.22,2.24c-1.47,1.47-2.4,3.75-2.8,6.82l-1.91,14.57Z"/><polygon class="cls-4" points="465.07 90.8 465.15 99.76 473.12 95.21 465.07 90.8"/><path class="cls-4" d="M549,95a7.38,7.38,0,0,0-2-5.44,7.29,7.29,0,0,0-5.43-1.88,7.58,7.58,0,0,0-6.16,2.83,11.49,11.49,0,0,0-2.24,7.58,6.86,6.86,0,0,0,2,5.13,7.33,7.33,0,0,0,5.35,1.89,7.72,7.72,0,0,0,6.2-2.74A11,11,0,0,0,549,95M526.46,81.2l8.69-.07-.52,3.3a19,19,0,0,1,5-3.26,13.25,13.25,0,0,1,5.18-1.12q6.16,0,9.65,3.64T558,94q.07,8-4.06,13A13.46,13.46,0,0,1,543.13,112a14.48,14.48,0,0,1-6-1.19,18.22,18.22,0,0,1-5.35-3.77,3.63,3.63,0,0,0,0,.44c0,.17,0,.43,0,.77a9.21,9.21,0,0,1,0,1.15c0,.4-.09,1-.19,1.82l-1.72,13.14-9.12.06Z"/><path class="cls-4" d="M582.76,93.93a7.33,7.33,0,0,0-2-5.39,7.22,7.22,0,0,0-5.4-1.9,7.68,7.68,0,0,0-6.19,2.78A11.41,11.41,0,0,0,567,97a6.79,6.79,0,0,0,2.1,5.18,7.91,7.91,0,0,0,5.62,1.9,7.27,7.27,0,0,0,5.89-2.81,11.15,11.15,0,0,0,2.18-7.3m6.58,16.43-9.15.07.49-3.3a10.16,10.16,0,0,1-4,3.39,13.37,13.37,0,0,1-5.63,1.17q-6.09,0-9.52-3.64T558,97.66q-.07-7.74,4.2-12.77a13.91,13.91,0,0,1,11-5.08,13.38,13.38,0,0,1,6,1.23,11.51,11.51,0,0,1,4.39,3.83l.51-4.14,9.14-.08Z"/><path class="cls-4" d="M596.5,100.77a12.86,12.86,0,0,0,3.68,3.33,7.83,7.83,0,0,0,4,1.17,4.16,4.16,0,0,0,2.61-.79,2.4,2.4,0,0,0,1-2q0-1.81-3.73-3.75c-1-.51-1.78-.94-2.35-1.28A15.65,15.65,0,0,1,597,93.55a7.39,7.39,0,0,1-1.36-4.36,8.3,8.3,0,0,1,3.4-6.88,14.12,14.12,0,0,1,8.91-2.78,16.2,16.2,0,0,1,6.27,1.17,16.64,16.64,0,0,1,5.38,3.57l-5.4,4.65a14.31,14.31,0,0,0-3.45-2.64,7,7,0,0,0-3.3-.85,3.74,3.74,0,0,0-2.42.75,2.25,2.25,0,0,0-.92,1.88q0,1.64,5,4.17l2.21,1.16a10.43,10.43,0,0,1,3.9,3.25,7.79,7.79,0,0,1,1.3,4.39,9.12,9.12,0,0,1-3.37,7.41,13.52,13.52,0,0,1-8.89,2.91,17.12,17.12,0,0,1-7-1.33,20,20,0,0,1-6.12-4.22Z"/><path class="cls-4" d="M621.88,100.56a12.86,12.86,0,0,0,3.68,3.33,7.76,7.76,0,0,0,4,1.18,4.25,4.25,0,0,0,2.62-.79,2.44,2.44,0,0,0,1-2c0-1.22-1.26-2.47-3.73-3.75-1-.52-1.79-1-2.35-1.29a15.7,15.7,0,0,1-4.76-3.88A7.37,7.37,0,0,1,621,89a8.33,8.33,0,0,1,3.41-6.88,14.06,14.06,0,0,1,8.91-2.77,16.24,16.24,0,0,1,6.27,1.17A16.48,16.48,0,0,1,645,84.07l-5.38,4.65a14.27,14.27,0,0,0-3.45-2.63,7,7,0,0,0-3.3-.85,3.92,3.92,0,0,0-2.42.74,2.3,2.3,0,0,0-.91,1.89q0,1.63,5,4.16l2.21,1.16a10.53,10.53,0,0,1,3.9,3.25,7.79,7.79,0,0,1,1.3,4.39,9.09,9.09,0,0,1-3.37,7.41,13.52,13.52,0,0,1-8.89,2.92,17.13,17.13,0,0,1-7-1.34,19.94,19.94,0,0,1-6.12-4.21Z"/><polygon class="cls-3" points="646.52 80.86 655.06 80.86 665.43 95.38 655.98 110.1 646.52 110.1 655.98 95.48 646.52 80.86"/><polygon class="cls-3" points="658.68 80.86 667.21 80.86 677.59 95.38 668.13 110.1 658.68 110.1 668.13 95.48 658.68 80.86"/><polygon class="cls-4" points="645.62 119.3 646.62 112.18 648.22 112.18 647.39 118.03 650.03 118.03 649.85 119.3 645.62 119.3"/><polygon class="cls-4" points="650.95 119.3 651.95 112.18 653.55 112.18 652.55 119.3 650.95 119.3"/><path class="cls-4" d="M654.11,112.18h1.67l1.14,4.27v0a8.22,8.22,0,0,1,.24,1.2,6,6,0,0,1,.56-1.33l0-.09,2.2-4.09h1.74l-4,7.12h-1.54Z"/><polygon class="cls-4" points="661.45 119.3 662.46 112.18 666.99 112.18 666.82 113.44 663.87 113.44 663.64 115.03 666.59 115.03 666.42 116.26 663.47 116.26 663.21 118.04 666.17 118.04 665.99 119.3 661.45 119.3"/></g><path class="cls-5" d="M547.14,10.38a9,9,0,0,1-7.08,9,9.77,9.77,0,0,1,8.62,10.2c0,6.91-5.57,11.07-14.66,11.07H516.16V.29h17.46C542.06.29,547.14,4.08,547.14,10.38Zm-7,1.21c0-3.35-2.58-5.25-6.89-5.19H523V17h10.35c4.27,0,6.83-1.95,6.83-5.41Zm1.57,17.11c0-3.56-3.17-5.74-8.46-5.74H523V34.45h10.35c5.25.15,8.42-2,8.42-5.75Z"/><path class="cls-5" d="M31.21,31.57H10.92L7.1,40.68H0L17.77.32h7l17.6,40.36H35.16Zm-2.58-6.09L21,7.54,13.36,25.48Z"/><path class="cls-5" d="M84.67,40.65,77.32,28.41H65.87V40.59h-6.7V.29H75.5c10.29,0,16.21,5,16.21,13.77,0,6.47-3,11-8.34,13.09l9,13.5ZM75.49,22.36c6.2,0,9.77-2.64,9.77-8.13S81.69,6.4,75.49,6.4H65.94v16Z"/><path class="cls-5" d="M163.78.29V40.65H157V.29Z"/><path class="cls-5" d="M198.5,6.39c-4,0-6.55,1.5-6.55,4.22,0,8.82,21.72,4.09,21.66,18.62,0,7.2-6.31,11.64-15.26,11.64a24.74,24.74,0,0,1-16.44-6.39l2.92-5.9a21.21,21.21,0,0,0,13.63,5.9c4.71,0,7.63-1.8,7.63-4.9,0-9-21.73-4-21.73-18.34C184.36,4.31,190.27,0,199,0A26.19,26.19,0,0,1,213.1,4.14l-2.81,6A23.9,23.9,0,0,0,198.5,6.39Z"/><path class="cls-5" d="M332.1,40.65l-7.36-12.24H313.28V40.59h-6.77V.29h16.32c10.29,0,16.2,5,16.2,13.77,0,6.47-3,11-8.32,13.09l9,13.5Zm-9.2-18.29c6.21,0,9.78-2.64,9.78-8.13S329.11,6.4,322.9,6.4h-9.54v16Z"/><path class="cls-5" d="M440.9,14.06c0,9.11-5.72,14.41-15.92,14.41h-9.25V40.65H409V.29h16C435.06.29,440.9,5.31,440.9,14.06Zm-6.49.17c0-5.3-3.51-7.83-9.71-7.83h-9v16h9c6.16,0,9.67-2.64,9.67-8.13Z"/><path class="cls-5" d="M475.88,34.83c6.55,0,10.63-4,10.63-10.91V.29h6.78V23.92c0,10.56-6.6,17-17.46,17s-17.54-6.46-17.54-17V.29h6.77V23.92C465.06,30.73,469.26,34.83,475.88,34.83Z"/><path class="cls-5" d="M578.32.29V34.48h17.43v6.17h-24.2V.29Z"/><path class="cls-5" d="M620.52.29V40.65h-6.79V.29Z"/><path class="cls-5" d="M669.44,40.65,656.22,22.82l-6.84,7.57V40.65h-6.79V.29h6.79V21.16L668.58.29h8L661,17.52l16.6,23.13Z"/><path class="cls-5" d="M366.48,6.4h21.95V.29H359.7V6.4Z"/><path class="cls-5" d="M366.48,34.54V23.4h19.66v-6H366.48V12.1H359.7V40.65h29.44V34.54Z"/><path class="cls-5" d="M247.82,6.4h12.77V.29H228.33V6.4h19.49Z"/><path class="cls-5" d="M247.82,12.1h-6.77V40.65h6.77Z"/><path class="cls-5" d="M126.93,6.4h12.76V.29H107.44V6.4h19.49Z"/><path class="cls-5" d="M126.92,12.1h-6.77V40.65h6.77Z"/></g></g></svg>