<svg xmlns="http://www.w3.org/2000/svg" xmlns:xlink="http://www.w3.org/1999/xlink" viewBox="0 0 99.9 55.93"><defs><style>.cls-1,.cls-2{isolation:isolate;font-size:7.35px;font-family:HalyardText-Italic, Halyard Text;font-style:italic;}.cls-1,.cls-2,.cls-3,.cls-5{fill:#fff;}.cls-1{letter-spacing:-0.01em;}.cls-3,.cls-4{fill-rule:evenodd;}.cls-4{fill:#e34b5e;}.cls-6{fill:url(#linear-gradient);}.cls-7{fill:url(#linear-gradient-2);}.cls-8{fill:url(#linear-gradient-3);}.cls-9{fill:url(#linear-gradient-4);}</style><linearGradient id="linear-gradient" x1="42.76" y1="2773.52" x2="71.64" y2="2796.35" gradientTransform="translate(0 -2775.29)" gradientUnits="userSpaceOnUse"><stop offset="0" stop-color="#d31c5a"/><stop offset="1" stop-color="#3f4699"/></linearGradient><linearGradient id="linear-gradient-2" x1="35.68" y1="2780.3" x2="35.68" y2="2803.26" gradientTransform="translate(0 -2775.29)" gradientUnits="userSpaceOnUse"><stop offset="0" stop-color="#ce1d5d"/><stop offset="1" stop-color="#83417a"/></linearGradient><linearGradient id="linear-gradient-3" x1="65.02" y1="2782.87" x2="65.02" y2="2798.62" gradientTransform="translate(0 -2775.29)" gradientUnits="userSpaceOnUse"><stop offset="0" stop-color="#79427e"/><stop offset="1" stop-color="#4b4491"/></linearGradient><linearGradient id="linear-gradient-4" x1="38.34" y1="2804.28" x2="50.76" y2="2809.84" xlink:href="#linear-gradient-3"/></defs><g id="Layer_2" data-name="Layer 2"><g id="Layer_1-2" data-name="Layer 1"><g id="Layer_2-2" data-name="Layer 2"><g id="Layer_2-2-2" data-name="Layer 2-2"><g id="Layer_2-3" data-name="Layer 2-3"><g id="Layer_1-2-2" data-name="Layer 1-2"><g id="Layer_2-2-2-2" data-name="Layer 2-2-2"><g id="Layer_3" data-name="Layer 3"><g id="by"><text class="cls-1" transform="translate(52.33 53.87)">b</text><text class="cls-2" transform="translate(56.58 53.87)">y</text></g><g id="fanpass"><path class="cls-3" d="M63.94,53.87l.43-3.38h-.84l.14-1h.84l.09-.61v-.21A2.84,2.84,0,0,1,65,47.32a1.36,1.36,0,0,1,.48-.34,2.22,2.22,0,0,1,.72-.12,3.15,3.15,0,0,1,.61.06,2.55,2.55,0,0,1,.55.19l-.17,1.17a2.69,2.69,0,0,0-.38-.19,1.86,1.86,0,0,0-.34-.07.58.58,0,0,0-.43.18,1.37,1.37,0,0,0-.2.65l-.09.61H67l-.14,1H65.74l-.45,3.39Z"/><path class="cls-3" d="M70.15,51.39a1,1,0,0,0-.9-1.07h-.18a1.17,1.17,0,0,0-.92.41,1.65,1.65,0,0,0-.32,1.11,1,1,0,0,0,.31.76,1.1,1.1,0,0,0,.83.27,1.06,1.06,0,0,0,.87-.41,1.62,1.62,0,0,0,.32-1.07m1,2.44H69.78l.08-.49a1.36,1.36,0,0,1-.61.5,2,2,0,0,1-.83.18A1.8,1.8,0,0,1,67,53.48,2.11,2.11,0,0,1,66.5,52a2.73,2.73,0,0,1,.61-1.88,2,2,0,0,1,1.61-.75,2.09,2.09,0,0,1,.89.18,1.67,1.67,0,0,1,.64.57l.08-.61h1.34Z"/><path class="cls-3" d="M71.71,53.8l.56-4.37h1.22l-.09.69a3.21,3.21,0,0,1,.84-.62,2.11,2.11,0,0,1,.89-.21,1.78,1.78,0,0,1,1.22.34,1.17,1.17,0,0,1,.43,1,5.16,5.16,0,0,1-.08.79.2.2,0,0,1,0,.11l-.3,2.31H75.05l.32-2.44V51a.63.63,0,0,0-.19-.48.78.78,0,0,0-.53-.17,1.23,1.23,0,0,0-.91.33,1.7,1.7,0,0,0-.4,1l-.28,2.14Z"/><polygon class="cls-4" points="68.57 50.94 68.58 52.26 69.75 51.59 68.57 50.94"/><path class="cls-4" d="M81,51.56a1.15,1.15,0,0,0-.3-.81,1,1,0,0,0-.8-.27,1.13,1.13,0,0,0-.91.41,1.77,1.77,0,0,0-.38,1.1,1,1,0,0,0,.3.75,1.08,1.08,0,0,0,.8.28,1.1,1.1,0,0,0,.91-.4A1.62,1.62,0,0,0,81,51.56m-3.34-2H78.9l-.07.49a2.92,2.92,0,0,1,.72-.48,2,2,0,0,1,.77-.17,1.88,1.88,0,0,1,1.42.54,2.1,2.1,0,0,1,.52,1.51,2.82,2.82,0,0,1-.61,1.92,2,2,0,0,1-1.58.74,1.79,1.79,0,0,1-.88-.18,2.4,2.4,0,0,1-.79-.55.06.06,0,0,0,0,.06v.29a1.13,1.13,0,0,1,0,.26l-.26,1.93H76.77Z"/><path class="cls-4" d="M85.92,51.4a1.06,1.06,0,0,0-.3-.79,1,1,0,0,0-.79-.28,1.2,1.2,0,0,0-.92.41,1.7,1.7,0,0,0-.32,1.11,1,1,0,0,0,.31.76,1.15,1.15,0,0,0,.83.28,1.06,1.06,0,0,0,.87-.41,1.69,1.69,0,0,0,.32-1.07m1,2.44H85.54l.07-.48a1.55,1.55,0,0,1-.61.5,2.12,2.12,0,0,1-.83.17,1.84,1.84,0,0,1-1.41-.54A2.23,2.23,0,0,1,82.25,52a2.77,2.77,0,0,1,.61-1.89,2,2,0,0,1,1.61-.73,1.91,1.91,0,0,1,.88.18,1.68,1.68,0,0,1,.65.56l.07-.61h1.35Z"/><path class="cls-4" d="M87.94,52.41a1.8,1.8,0,0,0,.54.49,1.35,1.35,0,0,0,.61.18.6.6,0,0,0,.39-.12.38.38,0,0,0,.15-.3c0-.18-.19-.37-.55-.55l-.35-.19a2.15,2.15,0,0,1-.7-.57,1.14,1.14,0,0,1-.2-.65,1.22,1.22,0,0,1,.5-1,2.37,2.37,0,0,1,2.24-.23,2.47,2.47,0,0,1,.79.52l-.79.68a2.46,2.46,0,0,0-.51-.39,1,1,0,0,0-.49-.12.49.49,0,0,0-.35.11.31.31,0,0,0-.14.28c0,.15.25.36.73.61l.33.17a1.57,1.57,0,0,1,.58.47,1.26,1.26,0,0,1,.19.65,1.33,1.33,0,0,1-.5,1.09A2,2,0,0,1,89.1,54a2.47,2.47,0,0,1-1-.19,3.08,3.08,0,0,1-.9-.62Z"/><path class="cls-4" d="M91.68,52.38a1.72,1.72,0,0,0,.55.49,1.08,1.08,0,0,0,.61.17.6.6,0,0,0,.39-.11.37.37,0,0,0,.14-.3c0-.18-.19-.36-.55-.55a2.27,2.27,0,0,1-.34-.19,2.29,2.29,0,0,1-.71-.57,1.14,1.14,0,0,1-.2-.65,1.22,1.22,0,0,1,.5-1,2.37,2.37,0,0,1,2.24-.23,2.51,2.51,0,0,1,.8.52l-.8.68a2.12,2.12,0,0,0-.51-.38,1,1,0,0,0-.48-.13.66.66,0,0,0-.36.11.35.35,0,0,0-.14.28c0,.16.25.37.74.61l.33.17a1.56,1.56,0,0,1,.57.48,1.12,1.12,0,0,1,.19.61,1.34,1.34,0,0,1-.49,1.09,2,2,0,0,1-1.31.43,2.32,2.32,0,0,1-1-.2,2.76,2.76,0,0,1-.9-.61Z"/><polygon class="cls-3" points="95.32 49.47 96.58 49.47 98.1 51.62 96.71 53.78 95.32 53.78 96.71 51.63 95.32 49.47"/><polygon class="cls-3" points="97.11 49.47 98.36 49.47 99.9 51.62 98.51 53.78 97.11 53.78 98.51 51.63 97.11 49.47"/><polygon class="cls-4" points="95.18 55.14 95.33 54.09 95.57 54.09 95.44 54.96 95.83 54.96 95.81 55.14 95.18 55.14"/><polygon class="cls-4" points="95.97 55.14 96.12 54.09 96.35 54.09 96.2 55.14 95.97 55.14"/><path class="cls-4" d="M96.44,54.09h.24l.17.61h0a.54.54,0,0,1,0,.18.82.82,0,0,1,.09-.19h0l.32-.61h.26l-.61,1h-.23Z"/><polygon class="cls-4" points="97.52 55.14 97.66 54.09 98.33 54.09 98.31 54.28 97.87 54.28 97.84 54.52 98.27 54.52 98.25 54.69 97.82 54.69 97.78 54.96 98.21 54.96 98.19 55.14 97.52 55.14"/></g><path class="cls-5" d="M80.67,39.09a1.33,1.33,0,0,1-1,1.32,1.42,1.42,0,0,1,1.27,1.5c0,1-.82,1.64-2.16,1.64H76.1V37.61h2.57C79.91,37.61,80.67,38.15,80.67,39.09Zm-1,.17c0-.49-.38-.77-1-.76H77.1v1.56h1.53c.61,0,1-.29,1-.8Zm.23,2.53c0-.53-.47-.84-1.23-.84H77.13v1.69h1.52c.75,0,1.22-.29,1.22-.85Z"/><path class="cls-5" d="M4.6,42.21h-3L1,43.55H0l2.62-5.94h1l2.6,6h-1Zm-.38-.9L3.09,38.66,2,41.31Z"/><path class="cls-5" d="M12.48,43.55,11.4,41.72H9.71v1.82h-1V37.61h2.41c1.52,0,2.39.74,2.39,2a1.91,1.91,0,0,1-1.22,1.93l1.33,2Zm-1.35-2.7c.91,0,1.44-.38,1.44-1.22s-.53-1.15-1.44-1.15H9.72v2.35Z"/><path class="cls-5" d="M24.15,37.61v6h-1v-6Z"/><path class="cls-5" d="M29.3,38.49c-.61,0-1,.22-1,.61,0,1.31,3.2.61,3.2,2.75,0,1.06-.94,1.72-2.26,1.72a3.67,3.67,0,0,1-2.44-.94l.43-.88a3.09,3.09,0,0,0,2,.88c.69,0,1.13-.27,1.13-.73,0-1.32-3.22-.61-3.22-2.7,0-1,.87-1.66,2.16-1.66a3.83,3.83,0,0,1,2.08.61L31,39a3.58,3.58,0,0,0-1.74-.56Z"/><path class="cls-5" d="M49,43.55l-1.08-1.83H46.19v1.82h-1V37.61h2.44c1.51,0,2.38.74,2.38,2a1.89,1.89,0,0,1-1.22,1.93l1.33,2Zm-1.35-2.7c.91,0,1.44-.38,1.44-1.22s-.53-1.13-1.44-1.13H46.2v2.36Z"/><path class="cls-5" d="M65,39.63c0,1.34-.84,2.12-2.35,2.12H61.29v1.8h-1V37.61h2.36C64.14,37.61,65,38.34,65,39.63Zm-1,0c0-.78-.51-1.15-1.42-1.15H61.29v2.35h1.33c.91,0,1.43-.38,1.43-1.22Z"/><path class="cls-5" d="M70.19,42.69a1.46,1.46,0,0,0,1.57-1.35,1.13,1.13,0,0,0,0-.26V37.61h1V41.1a2.33,2.33,0,0,1-2.14,2.51H70.2a2.35,2.35,0,0,1-2.58-2.11,1.77,1.77,0,0,1,0-.4V37.61h1V41.1A1.48,1.48,0,0,0,70,42.69h.22Z"/><path class="cls-5" d="M85.26,37.61v5h2.58v.91H84.27v-6Z"/><path class="cls-5" d="M91.48,37.61v6h-1v-6Z"/><path class="cls-5" d="M98.7,43.55l-2-2.63L95.7,42v1.52h-1V37.61h1v3.06l2.83-3.06H99.7l-2.29,2.54,2.44,3.42Z"/><path class="cls-5" d="M54,38.5h3.23v-.89H53v.91Z"/><path class="cls-5" d="M54,42.65V41h2.9V40.1H54v-.78H53v4.21h4.34v-.9Z"/><path class="cls-5" d="M36.54,38.5h1.88v-.89H33.67v.91h2.87Z"/><path class="cls-5" d="M36.54,39.34h-1v4.21h1Z"/><path class="cls-5" d="M18.71,38.5h1.88v-.89H15.87v.91Z"/><path class="cls-5" d="M18.71,39.34h-1v4.21h1Z"/><path class="cls-5" d="M50,29.16h-.82a2.94,2.94,0,0,1-.42,0,4.76,4.76,0,0,1-.84-.07,6.47,6.47,0,0,1-.88-.15,7.77,7.77,0,0,1-.95-.24,5.22,5.22,0,0,1-.87-.29,9.75,9.75,0,0,1-1.54-.71,8.48,8.48,0,0,1-1.3-.84c-.18-.16-.4-.29-.59-.46s-.5-.43-.73-.66l-.51-.5-.75-.93a4,4,0,0,1-.41-.58,8.85,8.85,0,0,1-.75-1.39c0-.14-.16-.27-.21-.42a9.12,9.12,0,0,1-.51-1.47c-.05-.25-.14-.45-.19-.69s-.14-.7-.18-1-.07-.75-.09-1.12a6.17,6.17,0,0,1,0-.86,9.33,9.33,0,0,1,.13-1.39c.07-.26.09-.53.14-.79a5.15,5.15,0,0,1,.19-.75c.16-.44.29-.89.48-1.32s.38-.79.56-1.19a2.43,2.43,0,0,1,.2-.35c.18-.3.37-.58.57-.87s.38-.5.59-.76.41-.47.64-.7A7.06,7.06,0,0,1,41.63,8c.29-.24.59-.47.89-.7a4.07,4.07,0,0,1,.59-.4c.41-.24.82-.47,1.26-.69a13.33,13.33,0,0,1,1.36-.55,7.77,7.77,0,0,1,1.51-.38A4.91,4.91,0,0,0,48,5.1c.37,0,.74-.07,1.1-.09A6,6,0,0,1,50,5a9.35,9.35,0,0,1,1.4.14c.29.07.58.1.87.15l.76.18c.37.11.72.25,1.09.39s.5.21.77.33a5.2,5.2,0,0,1,.62.32c.35.21.71.43,1,.66s.56.42.83.64.47.41.71.63a10.86,10.86,0,0,1,1.06,1.19A9.83,9.83,0,0,1,60,11c.1.21.23.41.35.62a6.88,6.88,0,0,1,.4.89c.11.3.26.71.38,1.07a7.19,7.19,0,0,1,.24.88c.07.4.19.92.36,2.24s.11,1.11.21,1.75.14.7.29,1.63c.09.53.1.64.12.83v.25a4.05,4.05,0,0,0,.12.5,4,4,0,0,1,.09.48.66.66,0,0,1,0,.44.6.6,0,0,1-.39.27l-1.17.4a13.24,13.24,0,0,0-1.62.51c-.41.13-.82.23-1.23.37l-.44.15a.85.85,0,0,1-.5,0c-.3-.11-.44-.44-.61-.84L56.4,23l-.26-.78s-.11-.33-.19-.59q-.33-1.23-.54-2.49c-.12-.71-.24-1.63-.44-2.68a7.79,7.79,0,0,0-.2-.8,5.4,5.4,0,0,0-.42-1.07,5.3,5.3,0,0,0-.64-1c-.21-.23-.42-.45-.65-.66a4.27,4.27,0,0,0-1-.67,5.51,5.51,0,0,0-2.13-.62h-.58a5.29,5.29,0,0,0-.8.09,8.25,8.25,0,0,0-1,.3,6.06,6.06,0,0,0-1,.55,5.9,5.9,0,0,0-1.48,1.51,5.67,5.67,0,0,0-.48.91,7.41,7.41,0,0,0-.4,1.59,5.39,5.39,0,0,0,0,1.27,5.12,5.12,0,0,0,.44,1.49,5.41,5.41,0,0,0,.5.88,7.19,7.19,0,0,0,.68.77,5.29,5.29,0,0,0,.94.69,5.36,5.36,0,0,0,1,.47,5,5,0,0,0,1.08.24,5.43,5.43,0,0,0,1.14,0c.21,0,.42-.06.63-.07a3.34,3.34,0,0,1,3.47,3.19h0v.33A3.74,3.74,0,0,1,51.29,29,9.5,9.5,0,0,1,50,29.16Z"/><path class="cls-5" d="M48.56,15.35l.12.05,2.63,1.51a.3.3,0,0,1,.14.4h0a.25.25,0,0,1-.12.11L48.69,19a.44.44,0,0,1-.16.06.25.25,0,0,1-.17,0,.43.43,0,0,1-.11-.12.25.25,0,0,1,0-.17v-3a.15.15,0,0,1,0-.13.23.23,0,0,1,.08-.12.24.24,0,0,1,.12-.07h.14Z"/><path class="cls-6" d="M61.91,6.2a1.13,1.13,0,0,1-1.48,0A16.15,16.15,0,0,0,41.1,4.83a1.12,1.12,0,0,1-1.46-.21h0a1.14,1.14,0,0,1-.09-1.37,1.37,1.37,0,0,1,.34-.34,18.45,18.45,0,0,1,22,1.57,1.14,1.14,0,0,1,.3,1.34,1,1,0,0,1-.3.38Z"/><path class="cls-7" d="M37.23,27.7a1.15,1.15,0,0,0,.19-1.48A16.14,16.14,0,0,1,38.59,6.88a1.15,1.15,0,0,0,0-1.48h0A1.15,1.15,0,0,0,37,5.3l-.11.1a18.39,18.39,0,0,0-1.32,22,1.14,1.14,0,0,0,.34.35,1.25,1.25,0,0,0,1,.13,1,1,0,0,0,.42-.24Z"/><path class="cls-8" d="M65.06,19.24a16,16,0,0,0-2.26-10,1.14,1.14,0,0,1,.25-1.46h0a1.19,1.19,0,0,1,.44-.21,1.17,1.17,0,0,1,.93.16,1.61,1.61,0,0,1,.33.36,18.49,18.49,0,0,1,2,14.36,1.13,1.13,0,0,1-1.4.79,1.12,1.12,0,0,1-.83-1.19v-.18A16,16,0,0,0,65,19.21Z"/><path class="cls-9" d="M48.88,32.65a16.11,16.11,0,0,1-9.44-3.82,1.15,1.15,0,0,0-1.48,0h0a1.13,1.13,0,0,0-.1,1.6h0l.12.12a18.43,18.43,0,0,0,13.82,4.3,1.13,1.13,0,1,0,0-2.26h-.18a17.24,17.24,0,0,1-2.69.06Z"/><path class="cls-5" d="M62.6,22.72l-5.46,1.89c-.09,0-.18,0-.22-.15l-.19-.56a.17.17,0,0,1,0-.14.18.18,0,0,1,.09-.12l5.46-1.89a.19.19,0,0,1,.22.16l.19.55a.19.19,0,0,1,0,.15.15.15,0,0,1-.08.11Z"/><path class="cls-5" d="M62.93,23.7l-5.46,1.87h-.12a.14.14,0,0,1-.08-.1l-.13-.37a.15.15,0,0,1,0-.13.12.12,0,0,1,.09-.08L62.69,23h.13l.08.1.12.37a.15.15,0,0,1,0,.13A.13.13,0,0,1,62.93,23.7Z"/><path class="cls-5" d="M63.24,24.57l-5.46,1.89h-.13V26.4l-.1-.31a.15.15,0,0,1,0-.13.15.15,0,0,1,.08-.08L63,24a.17.17,0,0,1,.2.1l.11.32a.16.16,0,0,1-.09.21h0Z"/><path class="cls-5" d="M63.53,25.4l-5.46,1.89h-.13v-.06L57.78,27a.15.15,0,0,1,0-.13.18.18,0,0,1,.09-.08l5.46-1.89a.15.15,0,0,1,.13,0l.08.09.08.25a.13.13,0,0,1,0,.12A.12.12,0,0,1,63.53,25.4Z"/><path class="cls-5" d="M63.79,26.17l-5.46,1.89a.14.14,0,0,1-.19-.08v0h0l-.06-.17a.13.13,0,0,1,0-.12.28.28,0,0,1,.09-.1l5.46-1.88a.09.09,0,0,1,.07,0,.06.06,0,0,1,.06,0h0v0l.07.2a.16.16,0,0,1-.09.2Z"/><path class="cls-5" d="M64,26.88l-5.46,1.9h-.12a.18.18,0,0,1-.09-.1v-.13a.16.16,0,0,1,.09-.2h0l5.46-1.89a.15.15,0,0,1,.13,0,.17.17,0,0,1,.07.1v.12a.28.28,0,0,1,0,.13A.14.14,0,0,1,64,26.88Z"/><path class="cls-5" d="M64.26,27.52l-5.46,1.9a.13.13,0,0,1-.12,0h0a.06.06,0,0,1,0-.06V29.3a.17.17,0,0,1,.09-.21h0l5.47-1.91h.12a.06.06,0,0,1,0,.06v.06a.17.17,0,0,1-.1.22Z"/><path class="cls-5" d="M64.47,28.11,59,30a.15.15,0,0,1-.13,0,.14.14,0,0,1-.08-.1.14.14,0,0,1,.08-.19h0l5.46-1.89h.13a.06.06,0,0,1,0,.06h0a.13.13,0,0,1,0,.12.14.14,0,0,1-.09.08Z"/></g></g></g></g></g></g></g></g></svg>